<?xml version="1.0" encoding="UTF-8"?>
<svg width="24px" height="24px" viewBox="0 0 24 24" version="1.1" xmlns="http://www.w3.org/2000/svg" xmlns:xlink="http://www.w3.org/1999/xlink">
    <!-- Generator: Sketch 54.1 (76490) - https://sketchapp.com -->
    <title>Icon/Arrow/Active Copy 6</title>
    <desc>Created with Sketch.</desc>
    <defs>
        <circle id="path-1" cx="12" cy="12" r="12"></circle>
    </defs>
    <g id="Elements-&amp;-Components" stroke="none" stroke-width="1" fill="none" fill-rule="evenodd">
        <g id="Icons" transform="translate(-191.000000, -138.000000)">
            <g id="ðŸ¼-Icons/padlock" transform="translate(191.000000, 138.000000)">
                <g id="Fill" stroke-width="1">
                    <mask id="mask-2" fill="white">
                        <use xlink:href="#path-1"></use>
                    </mask>
                    <use id="Mask" fill="#1070D4" xlink:href="#path-1"></use>
                    <g id="Elements/Colours/Primary-grey" mask="url(#mask-2)" fill="#3B3B3B">
                        <g transform="translate(-14.000000, -14.000000)" id="Card">
                            <polygon points="0 0 53 0 53 48 0 48"></polygon>
                        </g>
                    </g>
                </g>
                <path d="M9.77777778,11.4545455 L14.2222222,11.4545455 L14.2222222,9.81818182 C14.2222222,9.21590608 14.0052105,8.70170668 13.5711806,8.27556818 C13.1371506,7.84942969 12.613429,7.63636364 12,7.63636364 C11.386571,7.63636364 10.8628494,7.84942969 10.4288194,8.27556818 C9.9947895,8.70170668 9.77777778,9.21590608 9.77777778,9.81818182 L9.77777778,11.4545455 Z M17,12.2727273 L17,17.1818182 C17,17.409092 16.9189823,17.6022719 16.7569444,17.7613636 C16.5949066,17.9204553 16.3981493,18 16.1666667,18 L7.83333333,18 C7.60185069,18 7.4050934,17.9204553 7.24305556,17.7613636 C7.08101771,17.6022719 7,17.409092 7,17.1818182 L7,12.2727273 C7,12.0454534 7.08101771,11.8522735 7.24305556,11.6931818 C7.4050934,11.5340901 7.60185069,11.4545455 7.83333333,11.4545455 L8.11111111,11.4545455 L8.11111111,9.81818182 C8.11111111,8.77272205 8.49305174,7.87500375 9.25694444,7.125 C10.0208372,6.37499625 10.9351799,6 12,6 C13.0648201,6 13.9791628,6.37499625 14.7430556,7.125 C15.5069483,7.87500375 15.8888889,8.77272205 15.8888889,9.81818182 L15.8888889,11.4545455 L16.1666667,11.4545455 C16.3981493,11.4545455 16.5949066,11.5340901 16.7569444,11.6931818 C16.9189823,11.8522735 17,12.0454534 17,12.2727273 Z" id="ï€£" fill="#FFFFFF"></path>
            </g>
        </g>
    </g>
</svg>