<?xml version="1.0" encoding="UTF-8"?>
<svg width="24px" height="24px" viewBox="0 0 24 24" version="1.1" xmlns="http://www.w3.org/2000/svg" xmlns:xlink="http://www.w3.org/1999/xlink">
    <!-- Generator: Sketch 54.1 (76490) - https://sketchapp.com -->
    <title>Icon/Arrow/Active Copy 25</title>
    <desc>Created with Sketch.</desc>
    <defs>
        <path d="M12,21.6 C17.3019336,21.6 21.6,17.3019336 21.6,12 C21.6,6.6980664 17.3019336,2.4 12,2.4 C6.6980664,2.4 2.4,6.6980664 2.4,12 C2.4,17.3019336 6.6980664,21.6 12,21.6 Z M12,24 C5.372583,24 0,18.627417 0,12 C0,5.372583 5.372583,0 12,0 C18.627417,0 24,5.372583 24,12 C24,18.627417 18.627417,24 12,24 Z" id="path-1"></path>
        <path d="M7.3046875,3.56933594 C7.3046875,3.89746258 7.26074263,4.19482289 7.17285156,4.46142578 C7.0849605,4.72802868 6.96630934,4.97558479 6.81689453,5.20410156 C6.66747972,5.43261833 6.49755955,5.64501855 6.30712891,5.84130859 C6.11669827,6.03759864 5.921876,6.22656159 5.72265625,6.40820312 C5.53515531,6.57812585 5.37255928,6.72314393 5.23486328,6.84326172 C5.09716728,6.96337951 4.98291061,7.08935481 4.89208984,7.22119141 C4.80126908,7.353028 4.73388694,7.5039054 4.68994141,7.67382812 C4.64599587,7.84375085 4.62402344,8.06640487 4.62402344,8.34179688 L4.62402344,8.73730469 C4.62402344,8.95996205 4.57861374,9.11669876 4.48779297,9.20751953 C4.3969722,9.2983403 4.26660241,9.34375 4.09667969,9.34375 L3.14746094,9.34375 C2.98339762,9.34375 2.85449266,9.2983403 2.76074219,9.20751953 C2.66699172,9.11669876 2.62011719,8.95410273 2.62011719,8.71972656 L2.62011719,7.796875 C2.62011719,7.46288896 2.66845655,7.16699348 2.76513672,6.90917969 C2.86181689,6.6513659 2.98486253,6.41699324 3.13427734,6.20605469 C3.28369215,5.99511613 3.44921784,5.80468835 3.63085938,5.63476562 C3.81250091,5.4648429 3.99121006,5.3037117 4.16699219,5.15136719 C4.29003968,5.04589791 4.40576118,4.93896539 4.51416016,4.83056641 C4.62255914,4.72216743 4.7163082,4.60791076 4.79541016,4.48779297 C4.87451211,4.36767518 4.93749977,4.24169988 4.984375,4.10986328 C5.03125023,3.97802668 5.0546875,3.8330086 5.0546875,3.67480469 C5.0546875,3.39355328 4.95654395,3.17675857 4.76025391,3.02441406 C4.56396386,2.87206955 4.27246287,2.79589844 3.88574219,2.79589844 C3.69824125,2.79589844 3.5092783,2.8193357 3.31884766,2.86621094 C3.12841702,2.91308617 2.94238372,2.97314417 2.76074219,3.04638672 C2.57910065,3.11962927 2.40625082,3.20019487 2.2421875,3.28808594 C2.07812418,3.375977 1.92871161,3.46386675 1.79394531,3.55175781 C1.57714735,3.68652411 1.41308649,3.74511728 1.30175781,3.72753906 C1.19042913,3.70996085 1.08496144,3.60742281 0.985351562,3.41992188 L0.484375,2.50585938 C0.44335917,2.44140593 0.405273613,2.36523481 0.370117188,2.27734375 C0.334960762,2.18945269 0.317382812,2.12207055 0.317382812,2.07519531 C0.317382812,2.01074187 0.343749736,1.95507836 0.396484375,1.90820312 C0.449219014,1.86132789 0.542968076,1.79687541 0.677734375,1.71484375 C0.876954121,1.59765566 1.10107297,1.48046934 1.35009766,1.36328125 C1.59912234,1.24609316 1.86572124,1.1420903 2.14990234,1.05126953 C2.43408345,0.960448765 2.73583825,0.88574248 3.05517578,0.827148438 C3.37451332,0.768554395 3.70409986,0.739257812 4.04394531,0.739257812 C4.58886991,0.739257812 5.06493937,0.80810478 5.47216797,0.945800781 C5.87939657,1.08349678 6.21923692,1.27831905 6.49169922,1.53027344 C6.76416152,1.78222782 6.96777276,2.08105296 7.10253906,2.42675781 C7.23730536,2.77246267 7.3046875,3.15331823 7.3046875,3.56933594 Z M5.0546875,11.7783203 C5.0546875,11.9658213 5.01806677,12.1430656 4.94482422,12.3100586 C4.87158167,12.4770516 4.77343812,12.6220697 4.65039062,12.7451172 C4.52734313,12.8681647 4.38232505,12.9648434 4.21533203,13.0351562 C4.04833901,13.1054691 3.87109469,13.140625 3.68359375,13.140625 C3.49609281,13.140625 3.31884849,13.1054691 3.15185547,13.0351562 C2.98486245,12.9648434 2.83984437,12.8681647 2.71679688,12.7451172 C2.59374938,12.6220697 2.49560583,12.4770516 2.42236328,12.3100586 C2.34912073,12.1430656 2.3125,11.9658213 2.3125,11.7783203 C2.3125,11.5908194 2.34912073,11.4135751 2.42236328,11.246582 C2.49560583,11.079589 2.59374938,10.9345709 2.71679688,10.8115234 C2.83984437,10.6884759 2.98486245,10.5903324 3.15185547,10.5170898 C3.31884849,10.4438473 3.49609281,10.4072266 3.68359375,10.4072266 C3.87109469,10.4072266 4.04833901,10.4438473 4.21533203,10.5170898 C4.38232505,10.5903324 4.52734313,10.6884759 4.65039062,10.8115234 C4.77343812,10.9345709 4.87158167,11.079589 4.94482422,11.246582 C5.01806677,11.4135751 5.0546875,11.5908194 5.0546875,11.7783203 Z" id="path-3"></path>
    </defs>
    <g id="Elements-&amp;-Components" stroke="none" stroke-width="1" fill="none" fill-rule="evenodd">
        <g id="Icons" transform="translate(-476.000000, -138.000000)">
            <g id="ðŸ¼-Icons/?/Blue" transform="translate(476.000000, 138.000000)">
                <g id="Group">
                    <mask id="mask-2" fill="white">
                        <use xlink:href="#path-1"></use>
                    </mask>
                    <use id="Focus" fill-opacity="0" fill="#FFFFFF" fill-rule="nonzero" xlink:href="#path-1"></use>
                    <g id="Elements/Colours/Primary-grey" mask="url(#mask-2)" fill="#3B3B3B">
                        <g transform="translate(-11.000000, -11.000000)" id="Card">
                            <polygon points="0 0 53 0 53 48 0 48"></polygon>
                        </g>
                    </g>
                </g>
                <g id="Group-7" transform="translate(8.000000, 5.000000)">
                    <mask id="mask-4" fill="white">
                        <use xlink:href="#path-3"></use>
                    </mask>
                    <use id="Icon" fill="#FFFFFF" xlink:href="#path-3"></use>
                    <g id="Elements/Colours/Primary-grey" mask="url(#mask-4)" fill="#3B3B3B">
                        <g transform="translate(-7.000000, -1.000000)" id="Card">
                            <polygon points="0 0 22 0 22 20 0 20"></polygon>
                        </g>
                    </g>
                </g>
            </g>
        </g>
    </g>
</svg>