<?xml version="1.0" encoding="UTF-8"?>
<svg width="24px" height="23px" viewBox="0 0 24 23" version="1.1" xmlns="http://www.w3.org/2000/svg" xmlns:xlink="http://www.w3.org/1999/xlink">
    <!-- Generator: Sketch 54.1 (76490) - https://sketchapp.com -->
    <title>Icon/Arrow/Active Copy 9</title>
    <desc>Created with Sketch.</desc>
    <defs>
        <path d="M14.6194005,2.45182484 L23.5963902,18.5380731 C24.4037901,19.9848873 23.8854425,21.8122889 22.4386283,22.6196888 C21.9917349,22.8690793 21.4884721,23 20.9767013,23 L3.02272204,23 C1.36586779,23 0.0227220362,21.6568542 0.0227220362,20 C0.0227220362,19.4882293 0.153642715,18.9849664 0.403033194,18.5380731 L9.38002284,2.45182484 C10.1874228,1.00501064 12.0148244,0.486662983 13.4616386,1.29406294 C13.9474439,1.56516836 14.3482951,1.96601954 14.6194005,2.45182484 Z" id="path-1"></path>
    </defs>
    <g id="Elements-&amp;-Components" stroke="none" stroke-width="1" fill="none" fill-rule="evenodd">
        <g id="Icons" transform="translate(-362.000000, -138.000000)">
            <g id="ðŸ¼-Icons/Exclamation-mark/Alert" transform="translate(362.000000, 138.000000)">
                <g id="Fill" stroke-width="1">
                    <mask id="mask-2" fill="white">
                        <use xlink:href="#path-1"></use>
                    </mask>
                    <use id="Mask" fill-opacity="0" fill="#D8D8D8" xlink:href="#path-1"></use>
                    <g id="Elements/Colours/Primary-grey" mask="url(#mask-2)" fill="#3B3B3B">
                        <polygon id="Card" points="0 0 24 0 24 24 0 24"></polygon>
                    </g>
                </g>
                <path d="M12.9912109,15.4003906 C12.97819,15.5891937 12.9244796,15.725911 12.8300781,15.8105469 C12.7356766,15.8951827 12.6070972,15.9375 12.4443359,15.9375 L11.5654297,15.9375 C11.4091789,15.9375 11.2838546,15.8951827 11.1894531,15.8105469 C11.0950516,15.725911 11.0413412,15.5891937 11.0283203,15.4003906 L10.5302734,6.98242188 C10.5107421,6.57877402 10.7027975,6.37695312 11.1064453,6.37695312 L12.9130859,6.37695312 C13.101889,6.37695312 13.2483719,6.42578076 13.3525391,6.5234375 C13.4567062,6.62109424 13.5022787,6.7740875 13.4892578,6.98242188 L12.9912109,15.4003906 Z M13.5283203,18.6425781 C13.5283203,18.8509125 13.4876306,19.0478506 13.40625,19.2333984 C13.3248694,19.4189462 13.215821,19.5800774 13.0791016,19.7167969 C12.9423821,19.8535163 12.7812509,19.9609371 12.5957031,20.0390625 C12.4101553,20.1171879 12.2132172,20.15625 12.0048828,20.15625 C11.7965484,20.15625 11.5996103,20.1171879 11.4140625,20.0390625 C11.2285147,19.9609371 11.0673835,19.8535163 10.9306641,19.7167969 C10.7939446,19.5800774 10.6865238,19.4189462 10.6083984,19.2333984 C10.530273,19.0478506 10.4912109,18.8509125 10.4912109,18.6425781 C10.4912109,18.4342438 10.530273,18.2373056 10.6083984,18.0517578 C10.6865238,17.86621 10.7939446,17.7050788 10.9306641,17.5683594 C11.0673835,17.4316399 11.2285147,17.3225916 11.4140625,17.2412109 C11.5996103,17.1598303 11.7965484,17.1191406 12.0048828,17.1191406 C12.2132172,17.1191406 12.4101553,17.1598303 12.5957031,17.2412109 C12.7812509,17.3225916 12.9423821,17.4316399 13.0791016,17.5683594 C13.215821,17.7050788 13.3248694,17.86621 13.40625,18.0517578 C13.4876306,18.2373056 13.5283203,18.4342438 13.5283203,18.6425781 Z" id="Icon" fill="#FFFFFF"></path>
            </g>
        </g>
    </g>
</svg>